HIERARCHY
ROOT Hips
{
	OFFSET	0.00	0.00	0.00
	CHANNELS 6 Xposition Yposition Zposition Zrotation Xrotation Yrotation
	JOINT LeftUpLeg
	{
		OFFSET	 0.126116	-0.014019	-0.065224
		CHANNELS 3 Zrotation Xrotation Yrotation
		JOINT LeftLeg
		{
			OFFSET	 0.000000	 0.000000	 0.569914
			CHANNELS 3 Zrotation Xrotation Yrotation
			JOINT LeftFoot
			{
				OFFSET	 0.000000	 0.000000	 0.544423
				CHANNELS 3 Zrotation Xrotation Yrotation
				JOINT LeftToeBase
				{
					OFFSET	 0.000000	 0.000000	 0.207117
					CHANNELS 3 Zrotation Xrotation Yrotation
					End Site
					{
						OFFSET	 0.000000	 0.000000	 0.207117
					}
				}
			}
		}
	}
	JOINT RightUpLeg
	{
		OFFSET	-0.124023	-0.008373	-0.065224
		CHANNELS 3 Zrotation Xrotation Yrotation
		JOINT RightLeg
		{
			OFFSET	 0.000000	 0.000000	 0.570047
			CHANNELS 3 Zrotation Xrotation Yrotation
			JOINT RightFoot
			{
				OFFSET	 0.000000	 0.000000	 0.544354
				CHANNELS 3 Zrotation Xrotation Yrotation
				JOINT RightToeBase
				{
					OFFSET	 0.000000	 0.000000	 0.207540
					CHANNELS 3 Zrotation Xrotation Yrotation
					End Site
					{
						OFFSET	 0.000000	 0.000000	 0.207540
					}
				}
			}
		}
	}
	JOINT Spine
	{
		OFFSET	 0.000184	-0.007763	 0.117403
		CHANNELS 3 Zrotation Xrotation Yrotation
		JOINT Spine1
		{
			OFFSET	 0.000000	 0.000000	 0.137269
			CHANNELS 3 Zrotation Xrotation Yrotation
			JOINT Spine2
			{
				OFFSET	 0.000000	 0.000000	 0.156879
				CHANNELS 3 Zrotation Xrotation Yrotation
				JOINT LeftShoulder
				{
					OFFSET	 0.080501	-0.002496	 0.160144
					CHANNELS 3 Zrotation Xrotation Yrotation
					JOINT LeftArm
					{
						OFFSET	 0.000000	 0.000000	 0.164363
						CHANNELS 3 Zrotation Xrotation Yrotation
						JOINT LeftForeArm
						{
							OFFSET	 0.000000	 0.000000	 0.364576
							CHANNELS 3 Zrotation Xrotation Yrotation
							JOINT LeftHand
							{
								OFFSET	 0.000000	 0.000000	 0.360812
								CHANNELS 3 Zrotation Xrotation Yrotation
								JOINT LeftHandIndex1
								{
									OFFSET	 0.000000	 0.000000	 0.086006
									CHANNELS 3 Zrotation Xrotation Yrotation
									JOINT LeftHandIndex2
									{
										OFFSET	 0.000000	 0.000000	 0.047236
										CHANNELS 3 Zrotation Xrotation Yrotation
										JOINT LeftHandIndex3
										{
											OFFSET	-0.004284	-0.000551	 0.038166
											CHANNELS 3 Zrotation Xrotation Yrotation
											End Site
											{
												OFFSET	-0.004284	-0.000551	 0.038166
											}
										}
									}
								}
							}
						}
					}
				}
				JOINT Neck
				{
					OFFSET	 0.000000	 0.000000	 0.176489
					CHANNELS 3 Zrotation Xrotation Yrotation
					JOINT Head
					{
						OFFSET	 0.000000	-0.001747	 0.077940
						CHANNELS 3 Zrotation Xrotation Yrotation
						End Site
						{
							OFFSET	 0.000000	-0.001747	 0.077940
						}
					}
				}
				JOINT RightShoulder
				{
					OFFSET	-0.080363	 0.000306	 0.159706
					CHANNELS 3 Zrotation Xrotation Yrotation
					JOINT RightArm
					{
						OFFSET	 0.000000	 0.000000	 0.164196
						CHANNELS 3 Zrotation Xrotation Yrotation
						JOINT RightForeArm
						{
							OFFSET	 0.000000	 0.000000	 0.365611
							CHANNELS 3 Zrotation Xrotation Yrotation
							JOINT RightHand
							{
								OFFSET	 0.000000	 0.000000	 0.360648
								CHANNELS 3 Zrotation Xrotation Yrotation
								JOINT RightHandIndex1
								{
									OFFSET	 0.000000	 0.000000	 0.069977
									CHANNELS 3 Zrotation Xrotation Yrotation
									JOINT RightHandIndex2
									{
										OFFSET	 0.000000	 0.000000	 0.052305
										CHANNELS 3 Zrotation Xrotation Yrotation
										JOINT RightHandIndex3
										{
											OFFSET	 0.009002	-0.000782	 0.042196
											CHANNELS 3 Zrotation Xrotation Yrotation
											End Site
											{
												OFFSET	 0.009002	-0.000782	 0.042196
											}
										}
									}
								}
							}
						}
					}
				}
			}
		}
	}
}
MOTION
Frames:    5
Frame Time: 0.03333334
-0.000934	 0.048181	 1.279623	 0.013436	 3.871104	 0.485962	-2.402115	-6.475999	 178.649500	 2.078475	-11.269920	 0.501597	-0.264525	 69.630970	 0.215005	-2.385833	 28.452750	 0.000004	 9.583176	-5.838995	-178.637300	-0.797844	-9.450085	 0.715302	 4.928010	 68.438310	 1.388256	 2.384659	 28.388700	-0.000001	-7.333334	 7.257168	 1.640663	-3.276222	-6.711584	-0.653785	 9.767684	 9.893793	-1.012330	-90.913930	 68.045330	-177.285800	-7.288934	 3.072994	-14.375700	 23.808500	-4.858059	-20.316770	-9.295331	-33.636070	-6.476616	-2.027600	 6.559038	 9.033609	-5.188889	 0.308190	 3.541030	-5.234859	 0.342567	 0.430617	 4.720875	 22.667580	-8.176478	 5.434865	-17.298110	 2.423070	 88.606950	 65.874100	 176.626300	 7.215897	 6.423978	 4.827311	-23.992980	-11.810550	 35.513590	 6.126799	-32.546110	 6.973577	 1.803333	 3.979147	-15.098590	 4.898592	 3.004813	-9.310344	 5.224449	 0.395017	 2.014677
-0.001185	 0.049875	 1.280069	 0.046825	 4.265282	 0.503677	-2.407587	-6.921036	 178.589000	 2.119102	-11.116740	 0.495718	-0.348743	 69.407000	 0.298267	-2.385833	 28.452750	 0.000004	 9.515615	-6.201801	-178.571600	-0.800832	-9.148281	 0.692177	 4.894439	 68.106990	 1.417940	 2.384659	 28.388700	-0.000001	-7.515662	 7.460497	 1.694957	-3.317086	-7.416858	-0.743621	 9.763095	 10.695940	-1.097062	-90.861890	 67.689180	-177.187500	-6.943225	 3.475300	-14.881800	 23.425080	-4.839131	-20.929770	-9.300322	-35.069150	-7.072512	-2.027600	 6.559038	 9.033609	-5.188889	 0.308190	 3.541030	-5.234859	 0.342567	 0.430617	 4.745195	 23.757120	-8.489755	 5.633824	-18.177260	 2.508604	 88.506330	 65.185910	 176.466200	 6.742864	 6.514154	 5.449611	-23.834840	-11.739530	 35.753380	 5.764524	-33.697130	 7.066502	 1.803333	 3.979147	-15.098590	 4.898592	 3.004813	-9.310344	 5.224449	 0.395017	 2.014677
-0.001951	 0.055884	 1.281472	 0.163133	 5.689769	 0.592590	-2.545187	-8.533773	 178.337800	 2.130026	-10.594520	 0.468505	-0.608879	 68.684630	 0.592070	-2.385832	 28.452790	-0.000001	 9.206529	-7.407430	-178.358200	-1.120522	-7.841091	 0.550109	 5.036062	 66.922550	 1.570032	 2.384659	 28.388700	-0.000001	-7.991166	 8.002788	 1.785486	-3.451790	-9.787377	-1.003359	 9.593045	 12.995720	-1.389020	-90.831120	 66.327120	-177.315600	-5.502382	 4.576619	-16.242260	 21.431810	-4.279129	-22.294450	-10.741110	-39.142800	-9.543444	-2.027600	 6.559038	 9.033609	-5.188889	 0.308190	 3.541030	-5.234859	 0.342567	 0.430617	 4.474541	 25.716640	-8.791506	 6.002763	-19.918020	 2.536577	 88.399300	 63.045400	 176.522700	 4.743727	 6.753452	 6.859891	-22.910430	-11.107570	 36.343680	 5.220202	-36.940670	 8.036403	 1.803333	 3.979147	-15.098590	 4.898592	 3.004813	-9.310344	 5.224449	 0.395017	 2.014677
-0.002715	 0.067085	 1.282121	 0.498540	 8.258405	 0.648954	-3.029973	-12.229350	 177.970400	 2.028869	-11.198470	 0.475193	-0.830054	 67.945520	 0.936907	-2.385833	 28.452760	 0.000004	 8.657896	-10.740040	-177.983000	-1.511665	-7.866867	 0.498134	 5.716887	 66.041890	 1.207402	 2.384659	 28.388700	-0.000001	-8.695067	 8.511052	 1.807528	-3.618857	-13.254240	-1.318789	 9.160544	 15.833670	-1.656747	-91.374200	 64.994920	-178.932300	-3.131883	 6.900851	-16.233070	 18.786100	-3.521729	-24.822340	-14.407240	-44.111910	-14.068220	-2.027600	 6.559038	 9.033609	-5.188889	 0.308190	 3.541030	-5.234859	 0.342567	 0.430617	 3.830838	 26.870660	-8.763710	 6.249806	-21.362300	 2.505001	 88.876430	 61.160100	 177.878000	 1.091152	 8.521484	 7.034832	-21.484010	-10.251380	 37.632150	 5.232070	-41.477080	 10.159010	 1.803333	 3.979147	-15.098590	 4.898592	 3.004813	-9.310344	 5.224449	 0.395017	 2.014677
-0.003144	 0.082070	 1.281786	 0.850048	 11.490980	 0.532640	-3.584498	-17.095540	 177.679900	 2.003376	-12.213090	 0.512225	-1.117209	 67.169110	 1.277575	-2.385832	 28.452790	-0.000001	 8.278575	-15.636280	-177.358900	-1.801357	-9.121289	 0.530843	 6.587880	 65.597720	 0.515135	 2.384659	 28.388700	-0.000001	-9.412421	 8.785401	 1.879059	-3.602331	-16.026860	-1.563344	 8.555241	 17.726590	-1.481714	-92.482880	 65.066090	 178.116400	-0.512826	 10.814210	-14.472250	 17.763080	-3.531384	-28.756940	-18.067960	-48.345330	-18.543130	-2.027600	 6.559038	 9.033609	-5.188889	 0.308190	 3.541030	-5.234859	 0.342567	 0.430617	 3.177362	 25.492080	-8.991462	 6.156932	-21.345920	 2.308875	 89.956300	 60.349130	-179.602800	-2.853957	 12.057160	 6.190363	-19.653610	-9.146671	 39.392860	 6.911710	-46.170440	 13.008360	 1.803333	 3.979147	-15.098590	 4.898592	 3.004813	-9.310344	 5.224449	 0.395017	 2.014677
